<svg width="198" height="150" viewBox="0 0 198 150" fill="none" xmlns="http://www.w3.org/2000/svg">
<g filter="url(#filter0_d_619_4788)">
<path d="M111.053 83.1741H90.677C90.677 79.0089 90.961 75.3407 91.529 72.1695C92.1443 68.951 93.1856 66.0638 94.6529 63.5079C96.1201 60.952 98.1081 58.5854 100.617 56.4082C102.841 54.5623 104.758 52.7873 106.367 51.0834C107.977 49.3795 109.207 47.6519 110.059 45.9006C110.911 44.1494 111.337 42.2798 111.337 40.2919C111.337 37.8306 110.982 35.819 110.272 34.2571C109.61 32.6952 108.592 31.5355 107.219 30.7782C105.894 29.9736 104.214 29.5713 102.179 29.5713C100.522 29.5713 98.96 29.9736 97.4928 30.7782C96.0728 31.5829 94.9132 32.8372 94.0139 34.5411C93.1146 36.1977 92.6176 38.3986 92.523 41.1438H68.455C68.597 34.0914 70.1589 28.3643 73.1408 23.9625C76.17 19.5134 80.1931 16.2712 85.2103 14.2359C90.2747 12.1534 95.9308 11.1121 102.179 11.1121C109.089 11.1121 115.029 12.177 119.999 14.3069C124.969 16.4368 128.779 19.608 131.429 23.8205C134.08 27.9857 135.405 33.1212 135.405 39.2269C135.405 43.2974 134.624 46.8472 133.062 49.8765C131.548 52.8583 129.489 55.6509 126.886 58.2541C124.33 60.81 121.466 63.5552 118.295 66.4898C115.55 68.9037 113.68 71.3649 112.686 73.8735C111.692 76.3347 111.148 79.4349 111.053 83.1741ZM87.7662 104.757C87.7662 101.349 88.9968 98.5094 91.458 96.2375C93.9192 93.9183 97.1141 92.7587 101.043 92.7587C104.971 92.7587 108.166 93.9183 110.627 96.2375C113.088 98.5094 114.319 101.349 114.319 104.757C114.319 108.165 113.088 111.029 110.627 113.348C108.166 115.62 104.971 116.756 101.043 116.756C97.1141 116.756 93.9192 115.62 91.458 113.348C88.9968 111.029 87.7662 108.165 87.7662 104.757Z" fill="#FFB184"/>
</g>
<g filter="url(#filter1_d_619_4788)">
<path d="M154.558 104.199L143.113 98.1073C144.358 95.7679 145.614 93.7925 146.882 92.1811C148.189 90.5573 149.638 89.247 151.226 88.2501C152.814 87.2532 154.638 86.5183 156.698 86.0454C158.499 85.6737 160.107 85.2499 161.52 84.774C162.933 84.2981 164.141 83.6957 165.143 82.9668C166.145 82.2379 166.944 81.3151 167.538 80.1986C168.274 78.8162 168.676 77.5802 168.744 76.4906C168.839 75.4152 168.614 74.4596 168.069 73.6239C167.566 72.7757 166.742 72.0474 165.599 71.4389C164.669 70.9436 163.671 70.7026 162.606 70.7159C161.568 70.7433 160.542 71.1011 159.527 71.7892C158.527 72.4508 157.59 73.5384 156.716 75.0521L143.198 67.8562C145.386 63.9376 147.975 61.1878 150.966 59.607C153.998 58.0137 157.227 57.3955 160.653 57.7523C164.121 58.0968 167.609 59.203 171.118 61.0709C174.999 63.1369 178.017 65.5111 180.172 68.1932C182.326 70.8754 183.518 73.7957 183.748 76.9542C183.991 80.0861 183.2 83.3668 181.375 86.7962C180.158 89.0825 178.658 90.8429 176.875 92.0773C175.133 93.2993 173.141 94.2522 170.901 94.9361C168.701 95.6075 166.272 96.2932 163.613 96.9934C161.35 97.5284 159.564 98.3519 158.255 99.4637C156.961 100.549 155.729 102.127 154.558 104.199ZM135.025 109.36C136.044 107.446 137.584 106.218 139.646 105.678C141.722 105.111 143.863 105.415 146.069 106.59C148.276 107.764 149.724 109.371 150.413 111.409C151.116 113.421 150.958 115.384 149.939 117.298C148.92 119.212 147.373 120.453 145.297 121.02C143.235 121.56 141.101 121.243 138.895 120.068C136.688 118.894 135.233 117.3 134.53 115.289C133.841 113.25 134.006 111.274 135.025 109.36Z" fill="#CAB7FF"/>
</g>
<g filter="url(#filter2_d_619_4788)">
<path d="M43.2228 104.199L54.6675 98.1073C53.4222 95.7679 52.166 93.7925 50.8988 92.1811C49.591 90.5573 48.1429 89.247 46.5546 88.2501C44.9663 87.2532 43.1422 86.5183 41.0823 86.0454C39.2809 85.6737 37.6736 85.2499 36.2602 84.774C34.8469 84.2981 33.6392 83.6957 32.6371 82.9668C31.635 82.2379 30.8368 81.3151 30.2424 80.1986C29.5066 78.8162 29.1045 77.5802 29.0363 76.4906C28.9415 75.4152 29.1664 74.4596 29.7109 73.6239C30.2147 72.7757 31.0382 72.0474 32.1813 71.4389C33.1118 70.9436 34.1094 70.7026 35.1741 70.7159C36.2122 70.7433 37.2385 71.1011 38.2531 71.7892C39.2534 72.4508 40.1906 73.5384 41.0645 75.0521L54.5828 67.8562C52.3946 63.9376 49.805 61.1878 46.8141 59.607C43.7825 58.0137 40.5535 57.3955 37.127 57.7523C33.6598 58.0968 30.1716 59.203 26.6624 61.0709C22.7811 63.1369 19.7631 65.5111 17.6085 68.1932C15.4539 70.8754 14.262 73.7957 14.0327 76.9542C13.7892 80.0861 14.5802 83.3668 16.4057 86.7962C17.6227 89.0825 19.1227 90.8429 20.9056 92.0773C22.6479 93.2993 24.6392 94.2522 26.8797 94.9361C29.0794 95.6075 31.5085 96.2932 34.1671 96.9934C36.4307 97.5284 38.2166 98.3519 39.5249 99.4637C40.819 100.549 42.0517 102.127 43.2228 104.199ZM62.7553 109.36C61.7364 107.446 60.1962 106.218 58.1345 105.678C56.0587 105.111 53.9175 105.415 51.711 106.59C49.5045 107.764 48.0567 109.371 47.3677 111.409C46.6646 113.421 46.8224 115.384 47.8413 117.298C48.8602 119.212 50.4075 120.453 52.4833 121.02C54.545 121.56 56.6791 121.243 58.8856 120.068C61.0921 118.894 62.5469 117.3 63.2501 115.289C63.9391 113.25 63.7742 111.274 62.7553 109.36Z" fill="#FFA9D2"/>
</g>
<path d="M105.328 83.4975L105.82 83.5033L105.838 83.0114C105.976 79.3112 106.55 76.2822 107.542 73.9065L107.543 73.9034C108.528 71.5021 110.367 69.1249 113.101 66.778L113.101 66.7781L113.11 66.7695C116.32 63.8691 119.22 61.1533 121.812 58.6224C124.479 56.0173 126.604 53.2078 128.18 50.1931C129.822 47.099 130.659 43.4768 130.707 39.3419C130.78 33.1637 129.501 27.9136 126.839 23.6186C124.18 19.2808 120.325 16.0001 115.296 13.7742C110.274 11.5516 104.276 10.4082 97.3161 10.3261C91.0126 10.2517 85.2784 11.2348 80.1208 13.2847C74.9883 15.2967 70.8474 18.5538 67.7087 23.0487L67.7081 23.0497C64.6034 27.5183 62.9571 33.3299 62.7298 40.4464L62.7134 40.9613L63.2285 40.9674L87.2948 41.2514L87.7825 41.2572L87.8051 40.7699C87.93 38.0711 88.4431 35.9616 89.3103 34.408L89.3104 34.408L89.3132 34.4028C90.1943 32.7801 91.304 31.6177 92.6332 30.8842C94.0348 30.1376 95.5167 29.7751 97.0863 29.7937C99.0572 29.8169 100.635 30.2253 101.851 30.9836L101.86 30.9892L101.869 30.9943C103.126 31.7073 104.058 32.7873 104.663 34.2615L104.663 34.2616L104.668 34.2733C105.321 35.7554 105.647 37.6928 105.619 40.1108C105.596 42.0237 105.166 43.8126 104.328 45.4838C103.483 47.1709 102.265 48.8427 100.664 50.4979C99.0517 52.1652 97.1297 53.9036 94.8959 55.7131L94.8958 55.713L94.8873 55.7203C92.3155 57.8997 90.2611 60.2849 88.7317 62.8777C87.2029 65.4695 86.1091 68.3979 85.4459 71.6578L85.4459 71.6578L85.4448 71.6636C84.8325 74.8642 84.5035 78.5596 84.454 82.7462L84.4481 83.251L84.9529 83.257L105.328 83.4975ZM85.2455 95.4507C82.6523 97.7893 81.3305 100.749 81.2886 104.293C81.2468 107.839 82.4984 110.851 85.0331 113.296L85.0369 113.3C87.579 115.703 90.8896 116.911 94.9214 116.959C98.9532 117.006 102.291 115.876 104.89 113.534L104.893 113.531C107.485 111.146 108.807 108.164 108.849 104.619C108.891 101.074 107.64 98.0842 105.102 95.685C102.561 93.2344 99.2502 92.0012 95.2166 91.9536C91.1829 91.906 87.8436 93.0607 85.2455 95.4507Z" stroke="white" stroke-width="1.00974"/>
<path d="M151.245 102.669L151.52 102.82L151.677 102.549C152.86 100.511 154.089 98.9819 155.356 97.9442L155.358 97.9429C156.629 96.8884 158.373 96.1032 160.609 95.6022L160.609 95.6023L160.617 95.6003C163.287 94.9308 165.728 94.2727 167.941 93.6259C170.218 92.9601 172.252 92.0172 174.039 90.7951C175.885 89.5481 177.438 87.7638 178.702 85.4562C180.59 82.008 181.441 78.6766 181.229 75.4684C181.033 72.237 179.849 69.2417 177.689 66.4878C175.533 63.7381 172.506 61.3026 168.622 59.1756C165.103 57.2492 161.589 56.087 158.079 55.6963C154.595 55.2919 151.295 55.8833 148.188 57.4696L148.188 57.4699C145.108 59.0516 142.446 61.8236 140.19 65.7528L140.027 66.037L140.315 66.1944L153.747 73.5493L154.019 73.6983L154.178 73.4314C155.055 71.9529 155.973 70.9214 156.925 70.3082L156.928 70.3061C157.908 69.6581 158.879 69.337 159.845 69.3224C160.855 69.3221 161.796 69.5616 162.672 70.0413C163.772 70.6436 164.536 71.3447 164.993 72.1343L164.993 72.1344L165 72.1457C165.493 72.9219 165.693 73.807 165.592 74.816L165.592 74.816L165.591 74.8241C165.515 75.8517 165.119 77.0376 164.38 78.3871C163.796 79.4548 163.019 80.3309 162.049 81.0192C161.07 81.7139 159.885 82.2887 158.492 82.7399C157.088 83.1943 155.488 83.5961 153.693 83.9446L153.693 83.9445L153.686 83.946C151.59 84.4012 149.722 85.1267 148.088 86.1258C146.455 87.1244 144.965 88.4422 143.618 90.0749L143.615 90.0778C142.314 91.6924 141.025 93.6697 139.745 96.0064L139.591 96.2881L139.873 96.4424L151.245 102.669ZM136.392 103.379C134.236 103.917 132.609 105.184 131.525 107.162C130.442 109.141 130.244 111.207 130.937 113.339L130.938 113.342C131.647 115.451 133.146 117.12 135.396 118.352C137.646 119.584 139.859 119.948 142.018 119.409L142.022 119.408C144.19 118.843 145.825 117.564 146.908 115.585C147.991 113.607 148.182 111.553 147.474 109.447C146.78 107.311 145.289 105.628 143.038 104.396C140.786 103.163 138.566 102.813 136.392 103.379Z" stroke="white" stroke-width="0.642483"/>
<path d="M46.5355 102.669L46.2607 102.82L46.1034 102.549C44.92 100.511 43.6918 98.9819 42.4242 97.9442L42.4226 97.9429C41.1517 96.8884 39.4078 96.1032 37.1709 95.6022L37.1708 95.6023L37.1629 95.6003C34.493 94.9308 32.0519 94.2727 29.8397 93.6259C27.5624 92.9601 25.5288 92.0172 23.7418 90.7951C21.8949 89.5481 20.3423 87.7638 19.0788 85.4562C17.1908 82.008 16.3398 78.6766 16.5509 75.4684C16.7474 72.237 17.9317 69.2417 20.0909 66.4878C22.2469 63.7381 25.274 61.3026 29.1587 59.1756C32.6769 57.2492 36.1916 56.087 39.7014 55.6963C43.1857 55.2919 46.4853 55.8833 49.5921 57.4696L49.5927 57.4699C52.6726 59.0516 55.3348 61.8236 57.5901 65.7528L57.7533 66.037L57.4658 66.1944L44.0334 73.5493L43.7611 73.6983L43.6028 73.4314C42.7257 71.9529 41.8068 70.9214 40.8552 70.3082L40.8521 70.3061C39.8721 69.6581 38.9012 69.337 37.9353 69.3224C36.9249 69.3221 35.9842 69.5616 35.1081 70.0413C34.0081 70.6436 33.244 71.3447 32.7875 72.1343L32.7878 72.1344L32.7806 72.1457C32.2878 72.9219 32.0874 73.807 32.1883 74.816L32.1884 74.816L32.189 74.8241C32.2656 75.8517 32.6613 77.0376 33.4002 78.3871C33.9848 79.4548 34.7614 80.3309 35.7315 81.0192C36.7108 81.7139 37.8949 82.2887 39.2888 82.7399C40.6928 83.1943 42.2921 83.5961 44.0878 83.9446L44.0878 83.9445L44.0947 83.946C46.1908 84.4012 48.0579 85.1267 49.6921 86.1258C51.3256 87.1244 52.8155 88.4422 54.1627 90.0749L54.165 90.0778C55.4659 91.6924 56.7555 93.6697 58.0349 96.0064L58.1892 96.2881L57.9075 96.4424L46.5355 102.669ZM61.3886 103.379C63.5444 103.917 65.1717 105.184 66.255 107.162C67.3385 109.141 67.536 111.207 66.8435 113.339L66.8425 113.342C66.133 115.451 64.6348 117.12 62.3845 118.352C60.1342 119.584 57.9214 119.948 55.7619 119.409L55.7587 119.408C53.5899 118.843 51.9558 117.564 50.8722 115.585C49.7889 113.607 49.598 111.553 50.3059 109.447C51.0004 107.311 52.4914 105.628 54.7428 104.396C56.9941 103.163 59.2148 102.813 61.3886 103.379Z" stroke="white" stroke-width="0.642483"/>
<defs>
<filter id="filter0_d_619_4788" x="46.7181" y="0.243629" width="110.424" height="149.117" filterUnits="userSpaceOnUse" color-interpolation-filters="sRGB">
<feFlood flood-opacity="0" result="BackgroundImageFix"/>
<feColorMatrix in="SourceAlpha" type="matrix" values="0 0 0 0 0 0 0 0 0 0 0 0 0 0 0 0 0 0 127 0" result="hardAlpha"/>
<feOffset dy="10.8684"/>
<feGaussianBlur stdDeviation="10.8684"/>
<feComposite in2="hardAlpha" operator="out"/>
<feColorMatrix type="matrix" values="0 0 0 0 0.210031 0 0 0 0 0.0633751 0 0 0 0 0.65 0 0 0 0.4 0"/>
<feBlend mode="normal" in2="BackgroundImageFix" result="effect1_dropShadow_619_4788"/>
<feBlend mode="normal" in="SourceGraphic" in2="effect1_dropShadow_619_4788" result="shape"/>
</filter>
<filter id="filter1_d_619_4788" x="120.283" y="50.7388" width="77.339" height="91.2824" filterUnits="userSpaceOnUse" color-interpolation-filters="sRGB">
<feFlood flood-opacity="0" result="BackgroundImageFix"/>
<feColorMatrix in="SourceAlpha" type="matrix" values="0 0 0 0 0 0 0 0 0 0 0 0 0 0 0 0 0 0 127 0" result="hardAlpha"/>
<feOffset dy="6.91545"/>
<feGaussianBlur stdDeviation="6.91545"/>
<feComposite in2="hardAlpha" operator="out"/>
<feColorMatrix type="matrix" values="0 0 0 0 0.210031 0 0 0 0 0.0633751 0 0 0 0 0.65 0 0 0 0.4 0"/>
<feBlend mode="normal" in2="BackgroundImageFix" result="effect1_dropShadow_619_4788"/>
<feBlend mode="normal" in="SourceGraphic" in2="effect1_dropShadow_619_4788" result="shape"/>
</filter>
<filter id="filter2_d_619_4788" x="0.158787" y="50.7388" width="77.3392" height="91.2824" filterUnits="userSpaceOnUse" color-interpolation-filters="sRGB">
<feFlood flood-opacity="0" result="BackgroundImageFix"/>
<feColorMatrix in="SourceAlpha" type="matrix" values="0 0 0 0 0 0 0 0 0 0 0 0 0 0 0 0 0 0 127 0" result="hardAlpha"/>
<feOffset dy="6.91545"/>
<feGaussianBlur stdDeviation="6.91545"/>
<feComposite in2="hardAlpha" operator="out"/>
<feColorMatrix type="matrix" values="0 0 0 0 0.210031 0 0 0 0 0.0633751 0 0 0 0 0.65 0 0 0 0.4 0"/>
<feBlend mode="normal" in2="BackgroundImageFix" result="effect1_dropShadow_619_4788"/>
<feBlend mode="normal" in="SourceGraphic" in2="effect1_dropShadow_619_4788" result="shape"/>
</filter>
</defs>
</svg>
