<svg width="29" height="29" viewBox="0 0 29 29" fill="none" xmlns="http://www.w3.org/2000/svg">
<path d="M2.9 29C2.03 29 1.45 28.71 0.87 28.13C-0.29 26.97 -0.29 25.23 0.87 24.07L24.07 0.87C25.23 -0.29 26.97 -0.29 28.13 0.87C29.29 2.03 29.29 3.77 28.13 4.93L4.93 28.13C4.35 28.71 3.77 29 2.9 29Z" fill="white"/>
<path d="M26.1 29C25.23 29 24.65 28.71 24.07 28.13L0.87 4.93C-0.29 3.77 -0.29 2.03 0.87 0.87C2.03 -0.29 3.77 -0.29 4.93 0.87L28.13 24.07C29.29 25.23 29.29 26.97 28.13 28.13C27.55 28.71 26.97 29 26.1 29Z" fill="white"/>
</svg>
