<svg width="37" height="27" viewBox="0 0 37 27" fill="none" xmlns="http://www.w3.org/2000/svg">
<path d="M13.4545 26.9092C12.4455 26.9092 11.7727 26.5729 11.1 25.9002L1.00909 15.8092C-0.336364 14.4638 -0.336364 12.4456 1.00909 11.1002C2.35455 9.7547 4.37273 9.7547 5.71818 11.1002L15.8091 21.1911C17.1545 22.5365 17.1545 24.5547 15.8091 25.9002C15.1364 26.5729 14.4636 26.9092 13.4545 26.9092Z" fill="white"/>
<path d="M13.4545 26.9091C12.4454 26.9091 11.7726 26.5727 11.0999 25.9C9.75446 24.5545 9.75446 22.5364 11.0999 21.1909L31.2817 1.00909C32.6272 -0.336364 34.6454 -0.336364 35.9908 1.00909C37.3363 2.35455 37.3363 4.37273 35.9908 5.71818L15.809 25.9C15.1363 26.5727 14.4635 26.9091 13.4545 26.9091Z" fill="white"/>
</svg>
