<svg width="14" height="14" viewBox="0 0 14 14" fill="none" xmlns="http://www.w3.org/2000/svg">
<g id="Icon - Right">
<path id="Vector" fill-rule="evenodd" clip-rule="evenodd" d="M7.20063 2.63253C6.97933 2.41123 6.62054 2.41123 6.39924 2.63253C6.17794 2.85382 6.17794 3.21262 6.39924 3.43391L9.39855 6.43322H2.83327C2.52031 6.43322 2.2666 6.68692 2.2666 6.99989C2.2666 7.31285 2.52031 7.56655 2.83327 7.56655H9.39855L6.39924 10.5659C6.17794 10.7872 6.17794 11.1459 6.39924 11.3672C6.62054 11.5885 6.97933 11.5885 7.20063 11.3672L11.1669 7.40098C11.1683 7.39962 11.1696 7.39824 11.171 7.39686C11.271 7.295 11.3328 7.15551 11.3333 7.00159C11.3333 7.00102 11.3333 7.00045 11.3333 6.99989C11.3333 6.99932 11.3333 6.99875 11.3333 6.99819C11.333 6.92197 11.3178 6.8493 11.2903 6.78298C11.2632 6.71766 11.2235 6.65637 11.171 6.60291C11.1696 6.60155 11.1683 6.60019 11.1669 6.59884M11.1669 6.59884L7.20063 2.63253L11.1669 6.59884Z" fill="white"/>
</g>
</svg>
