<svg width="48" height="48" viewBox="0 0 48 48" fill="none" xmlns="http://www.w3.org/2000/svg">
<path d="M19.5 2.59811C22.2846 0.99041 25.7154 0.99041 28.5 2.59811L40.2846 9.40195C43.0692 11.0096 44.7846 13.9808 44.7846 17.1962V30.8039C44.7846 34.0193 43.0692 36.9904 40.2846 38.5981L28.5 45.402C25.7154 47.0096 22.2846 47.0096 19.5 45.402L7.71539 38.5981C4.93078 36.9904 3.21539 34.0193 3.21539 30.8039V17.1962C3.21539 13.9808 4.93078 11.0096 7.71539 9.40195L19.5 2.59811Z" fill="#9B79FF"/>
<path d="M32.1093 30.612C32.2331 30.7359 32.3314 30.8829 32.3984 31.0448C32.4655 31.2066 32.5 31.3801 32.5 31.5553C32.5 31.7305 32.4655 31.9039 32.3984 32.0658C32.3314 32.2276 32.2331 32.3747 32.1093 32.4985C30.911 33.6969 29.4091 34.5466 27.7647 34.9564C26.1204 35.3663 24.3954 35.3209 22.7749 34.8251C21.1543 34.3293 19.6993 33.4019 18.5657 32.1421C17.4321 30.8824 16.6627 29.3379 16.34 27.6742H14.834C14.4802 27.6742 14.1409 27.5336 13.8907 27.2835C13.6405 27.0333 13.5 26.694 13.5 26.3402C13.5 25.9864 13.6405 25.6471 13.8907 25.3969C14.1409 25.1467 14.4802 25.0062 14.834 25.0062H16.168V23.2275H14.834C14.4802 23.2275 14.1409 23.0869 13.8907 22.8367C13.6405 22.5866 13.5 22.2473 13.5 21.8934C13.5 21.5396 13.6405 21.2003 13.8907 20.9502C14.1409 20.7 14.4802 20.5594 14.834 20.5594H16.34C16.6627 18.8957 17.4321 17.3512 18.5657 16.0915C19.6993 14.8318 21.1543 13.9043 22.7749 13.4085C24.3954 12.9127 26.1204 12.8673 27.7647 13.2772C29.4091 13.687 30.911 14.5367 32.1093 15.7351C32.2331 15.8589 32.3314 16.006 32.3984 16.1679C32.4655 16.3297 32.5 16.5032 32.5 16.6784C32.5 16.8536 32.4655 17.027 32.3985 17.1889C32.3314 17.3508 32.2332 17.4978 32.1093 17.6217C31.9854 17.7456 31.8383 17.8438 31.6765 17.9109C31.5146 17.9779 31.3412 18.0124 31.166 18.0124C30.9908 18.0124 30.8173 17.9779 30.6555 17.9109C30.4936 17.8439 30.3465 17.7456 30.2227 17.6217C29.3981 16.797 28.3717 16.203 27.2459 15.8989C26.1201 15.5947 24.9342 15.5911 23.8065 15.8883C22.6789 16.1856 21.6489 16.7734 20.8193 17.593C19.9898 18.4126 19.3896 19.4354 19.0788 20.5594H25.5062C25.86 20.5594 26.1993 20.7 26.4494 20.9502C26.6996 21.2003 26.8402 21.5396 26.8402 21.8934C26.8402 22.2473 26.6996 22.5866 26.4494 22.8367C26.1993 23.0869 25.86 23.2275 25.5062 23.2275H18.8361V25.0062H23.7275C24.0813 25.0062 24.4206 25.1467 24.6708 25.3969C24.9209 25.6471 25.0615 25.9864 25.0615 26.3402C25.0615 26.694 24.9209 27.0333 24.6708 27.2835C24.4206 27.5336 24.0813 27.6742 23.7275 27.6742H19.0788C19.3896 28.7982 19.9898 29.821 20.8193 30.6406C21.6489 31.4602 22.6789 32.048 23.8065 32.3453C24.9342 32.6425 26.1201 32.6389 27.2459 32.3348C28.3717 32.0306 29.3981 31.4366 30.2227 30.6119C30.3465 30.488 30.4936 30.3898 30.6555 30.3227C30.8173 30.2557 30.9908 30.2212 31.166 30.2212C31.3412 30.2212 31.5146 30.2557 31.6765 30.3228C31.8383 30.3898 31.9854 30.4881 32.1093 30.612Z" fill="white"/>
</svg>
