<svg width="25" height="24" viewBox="0 0 25 24" fill="none" xmlns="http://www.w3.org/2000/svg">
<path d="M10.0833 1.29893C11.4756 0.495083 13.191 0.495083 14.5833 1.29893L20.4756 4.70085C21.8679 5.5047 22.7256 6.99027 22.7256 8.59797V15.4018C22.7256 17.0095 21.8679 18.4951 20.4756 19.2989L14.5833 22.7009C13.191 23.5047 11.4756 23.5047 10.0833 22.7009L4.19101 19.2989C2.7987 18.4951 1.94101 17.0095 1.94101 15.4018V8.59797C1.94101 6.99027 2.7987 5.5047 4.19101 4.70085L10.0833 1.29893Z" fill="#D9755F"/>
<path d="M11.1472 11.3857H13.6434V12.5585H11.3929C11.4932 12.7911 11.5435 13.0235 11.5435 13.2559C11.5435 13.7155 11.4337 14.2016 11.2146 14.714C10.9953 15.2264 10.6347 15.7495 10.1329 16.283C10.5502 16.1668 10.9306 16.1086 11.274 16.1086C11.7124 16.1086 12.2064 16.1748 12.7559 16.3068C13.6644 16.5235 14.2799 16.6317 14.6022 16.6317C14.9931 16.6317 15.5003 16.4838 16.1237 16.1879L16.5833 17.4954C16.0972 17.7014 15.7208 17.8362 15.4541 17.8996C15.1872 17.9629 14.9218 17.9947 14.6577 17.9947C14.4358 17.9947 14.2112 17.9735 13.9841 17.9313C13.8415 17.9048 13.4993 17.8084 12.9579 17.642C12.4163 17.4756 12.0664 17.3766 11.908 17.3449C11.6596 17.3027 11.4113 17.2815 11.1631 17.2815C10.7827 17.2815 10.3772 17.3476 9.9467 17.4796C9.51607 17.6117 9.1238 17.7914 8.76995 18.0185L8.22318 16.6476C8.73035 16.3676 9.16083 15.9674 9.51483 15.447C9.86871 14.9267 10.0458 14.2914 10.0458 13.5412C10.0458 13.2191 10.0008 12.8914 9.91105 12.5586H8.35788V11.3858H9.57821C9.40388 10.7942 9.29293 10.3623 9.2454 10.0902C9.19786 9.81816 9.17408 9.55271 9.17408 9.29382C9.17408 8.19508 9.58081 7.33651 10.3944 6.71842C11.0494 6.22712 11.8418 5.98145 12.7717 5.98145C13.7278 5.98145 14.5163 6.2443 15.1371 6.76994C15.7578 7.29564 16.1395 8.03385 16.2822 8.98479L14.8637 9.19874C14.7845 8.56481 14.548 8.06558 14.1545 7.70104C13.7609 7.33651 13.2894 7.15427 12.74 7.15427C12.1536 7.15427 11.6663 7.34321 11.278 7.72087C10.8897 8.09862 10.6955 8.55427 10.6955 9.0878C10.6956 9.67408 10.8461 10.4401 11.1472 11.3857Z" fill="white"/>
</svg>
