<svg width="24" height="24" viewBox="0 0 24 24" fill="none" xmlns="http://www.w3.org/2000/svg">
<path d="M9.75 1.29893C11.1423 0.495083 12.8577 0.495083 14.25 1.29893L20.1423 4.70085C21.5346 5.5047 22.3923 6.99027 22.3923 8.59797V15.4018C22.3923 17.0095 21.5346 18.4951 20.1423 19.2989L14.25 22.7009C12.8577 23.5047 11.1423 23.5047 9.75 22.7009L3.8577 19.2989C2.46539 18.4951 1.6077 17.0095 1.6077 15.4018V8.59797C1.6077 6.99027 2.46539 5.5047 3.8577 4.70085L9.75 1.29893Z" fill="#799FFF"/>
<path d="M13.131 13.61C14.0908 13.61 15.0113 13.2223 15.69 12.5322C16.3687 11.842 16.75 10.906 16.75 9.93C16.75 8.954 16.3687 8.01798 15.69 7.32785C15.0113 6.63771 14.0908 6.25 13.131 6.25H9.7381C9.55813 6.25001 9.38554 6.32271 9.25828 6.45211C9.13103 6.5815 9.05953 6.757 9.05952 6.94V12.23H7.92857C7.7486 12.23 7.57601 12.3027 7.44875 12.4321C7.32149 12.5615 7.25 12.737 7.25 12.92C7.25 13.103 7.32149 13.2785 7.44875 13.4079C7.57601 13.5373 7.7486 13.61 7.92857 13.61H9.05952V14.53H7.92857C7.7486 14.53 7.57601 14.6027 7.44875 14.7321C7.32149 14.8615 7.25 15.037 7.25 15.22C7.25 15.403 7.32149 15.5785 7.44875 15.7079C7.57601 15.8373 7.7486 15.91 7.92857 15.91H9.05952V17.06C9.05952 17.243 9.13102 17.4185 9.25827 17.5479C9.38553 17.6773 9.55813 17.75 9.7381 17.75C9.91806 17.75 10.0907 17.6773 10.2179 17.5479C10.3452 17.4185 10.4167 17.243 10.4167 17.06V15.91H12.9048C13.0847 15.91 13.2573 15.8373 13.3846 15.7079C13.5118 15.5785 13.5833 15.403 13.5833 15.22C13.5833 15.037 13.5118 14.8615 13.3846 14.7321C13.2573 14.6027 13.0847 14.53 12.9048 14.53H10.4167V13.61H13.131ZM10.4167 7.63H13.131C13.7308 7.63 14.3062 7.87232 14.7304 8.30365C15.1545 8.73499 15.3929 9.32 15.3929 9.93C15.3929 10.54 15.1545 11.125 14.7304 11.5563C14.3062 11.9877 13.7308 12.23 13.131 12.23H10.4167V7.63Z" fill="white"/>
</svg>
