<svg width="21" height="23" viewBox="0 0 21 23" fill="none" xmlns="http://www.w3.org/2000/svg">
<path d="M8.14231 0.602886C9.53461 -0.200962 11.25 -0.200962 12.6423 0.602886L18.5346 4.00481C19.9269 4.80866 20.7846 6.29423 20.7846 7.90192V14.7058C20.7846 16.3135 19.9269 17.799 18.5346 18.6029L12.6423 22.0048C11.25 22.8087 9.53461 22.8087 8.1423 22.0048L2.25 18.6029C0.857695 17.799 0 16.3135 0 14.7058V7.90192C0 6.29423 0.857695 4.80866 2.25 4.00481L8.14231 0.602886Z" fill="#48D24D"/>
<path d="M7 14.3889C7.7 15.1111 9.1 15.8333 10.5 15.8333M10.5 15.8333C12.25 15.8333 14 15.4722 14 13.6667C14 11.8611 12.2847 11.5 10.5 11.5M10.5 15.8333V11.5M10.5 15.8333V18M10.5 11.5C8.75 11.5 7 11.1389 7 9.33333C7 7.52778 8.75 7.16667 10.5 7.16667M10.5 11.5V7.16667M10.5 7.16667C11.9 7.16667 13.3 7.88889 14 8.61111M10.5 7.16667V5" stroke="white" stroke-width="1.52221"/>
</svg>
