<svg width="25" height="24" viewBox="0 0 25 24" fill="none" xmlns="http://www.w3.org/2000/svg">
<path d="M10.4167 1.29893C11.809 0.495083 13.5244 0.495083 14.9167 1.29893L20.809 4.70085C22.2013 5.5047 23.059 6.99027 23.059 8.59797V15.4018C23.059 17.0095 22.2013 18.4951 20.809 19.2989L14.9167 22.7009C13.5244 23.5047 11.809 23.5047 10.4167 22.7009L4.52435 19.2989C3.13205 18.4951 2.27435 17.0095 2.27435 15.4018V8.59797C2.27435 6.99027 3.13205 5.5047 4.52435 4.70085L10.4167 1.29893Z" fill="#D64B4B"/>
<path d="M12.5952 17.5V12M12.5952 12L8.66666 6.5M12.5952 12L16.5238 6.5" stroke="white" stroke-width="1.125" stroke-linecap="round" stroke-linejoin="round"/>
<path d="M9.45238 15.9285H15.7381" stroke="white" stroke-width="1.125" stroke-linecap="round" stroke-linejoin="round"/>
<path d="M9.45238 12.7856H15.7381" stroke="white" stroke-width="1.125" stroke-linecap="round" stroke-linejoin="round"/>
</svg>
